<?xml version="1.0" standalone="no"?>
<!DOCTYPE svg PUBLIC "-//W3C//DTD SVG 20010904//EN"
 "http://www.w3.org/TR/2001/REC-SVG-20010904/DTD/svg10.dtd">
<svg version="1.0" xmlns="http://www.w3.org/2000/svg"
 width="260.000000pt" height="260.000000pt" viewBox="0 0 260.000000 260.000000"
 preserveAspectRatio="xMidYMid meet">
<metadata>
Created by potrace 1.11, written by Peter Selinger 2001-2013
</metadata>
<g transform="translate(0.000000,260.000000) scale(0.100000,-0.100000)"
fill="#000000" stroke="none">
<path d="M727 2133 c-2 -5 -3 -141 -2 -303 1 -274 0 -296 -17 -316 -23 -26
-28 -51 -30 -139 -1 -86 8 -131 30 -147 16 -12 17 -42 17 -300 0 -157 -2 -286
-5 -285 -3 1 -15 -4 -26 -11 -12 -6 -24 -8 -28 -5 -3 3 -6 1 -6 -5 0 -7 -3
-11 -7 -10 -9 1 -11 1 -156 -55 l-107 -41 37 -39 c111 -116 213 -192 348 -258
189 -91 360 -125 585 -116 246 10 468 89 660 234 72 55 182 164 177 177 -3 6
-51 29 -108 50 -57 22 -110 44 -118 50 -12 9 -13 8 -6 -4 8 -13 7 -13 -9 0
-10 8 -24 15 -31 16 -8 1 -22 8 -32 16 -17 12 -19 33 -19 293 0 258 2 281 19
297 23 20 28 45 28 138 0 92 -6 120 -29 140 -17 14 -18 36 -17 323 1 235 -2
307 -11 307 -7 0 -35 -18 -63 -40 -28 -22 -55 -40 -60 -40 -5 0 -16 -9 -24
-20 -8 -11 -17 -17 -20 -13 -4 3 -7 1 -7 -5 0 -6 -9 -16 -21 -22 -17 -9 -25
-8 -42 7 -14 13 -18 14 -13 3 7 -13 6 -13 -6 0 -19 22 -74 51 -82 43 -3 -3 -6
-1 -6 6 0 7 -4 10 -9 6 -5 -3 -12 -1 -15 4 -22 35 -316 45 -349 12 -5 -5 -16
-7 -23 -4 -8 3 -14 0 -14 -6 0 -6 -3 -10 -7 -10 -5 1 -11 0 -15 -1 -5 -1 -11
-3 -15 -4 -22 -6 -83 -41 -83 -48 0 -4 -7 -8 -15 -8 -8 0 -15 -4 -15 -10 0 -5
-11 -9 -24 -8 -14 1 -22 6 -20 10 3 4 1 8 -4 8 -5 0 -24 15 -42 33 -18 17 -29
26 -25 18 5 -9 4 -12 -3 -7 -7 4 -12 14 -12 22 0 8 -4 13 -9 10 -5 -3 -12 1
-15 10 -3 9 -11 12 -18 8 -7 -4 -10 -4 -6 1 4 4 -2 16 -14 26 -23 20 -34 23
-41 12z m251 -723 c4 0 13 -13 20 -30 11 -23 20 -30 42 -30 15 0 33 7 40 15 7
8 23 15 35 15 18 0 22 -4 18 -20 -14 -53 -103 -78 -152 -44 -42 30 -62 114
-24 100 8 -3 18 -6 21 -6z m684 -21 c-6 -38 -30 -68 -69 -84 -33 -14 -39 -14
-72 2 -20 10 -41 29 -48 43 -12 23 -11 25 13 28 14 2 34 -4 43 -12 10 -9 24
-16 31 -16 18 0 50 30 50 46 0 12 26 24 45 19 6 -1 9 -13 7 -26z m-766 -194
c17 -2 43 -9 58 -14 15 -6 30 -10 34 -10 4 1 9 0 12 -1 8 -3 42 -10 70 -14 14
-2 32 -7 40 -10 14 -5 31 -9 95 -21 11 -3 37 -8 57 -13 29 -8 63 -3 160 19 68
16 134 31 148 34 43 8 65 13 65 15 0 1 9 3 20 4 24 3 83 15 108 22 15 5 16 0
11 -33 -4 -21 -8 -45 -9 -53 -1 -8 -5 -22 -8 -30 -3 -8 -11 -42 -18 -75 -7
-33 -13 -62 -14 -65 -5 -25 -31 -80 -37 -80 -4 0 -8 -7 -8 -15 0 -8 -4 -15
-10 -15 -5 0 -10 -6 -10 -14 0 -8 -5 -18 -12 -22 -7 -5 -8 -3 -3 7 5 8 -9 -3
-30 -23 -21 -20 -44 -34 -51 -31 -8 3 -14 0 -14 -6 0 -6 -8 -11 -18 -11 -10 0
-23 -5 -29 -11 -6 -6 -22 -12 -37 -15 -14 -2 -38 -7 -53 -10 -39 -7 -196 -12
-208 -5 -5 3 -19 6 -30 8 -38 6 -50 10 -89 26 -21 10 -41 17 -43 17 -3 0 -18
9 -34 21 -16 11 -29 18 -29 14 0 -3 -6 0 -14 7 -8 7 -12 16 -9 21 2 4 0 7 -6
7 -18 0 -82 125 -89 173 -9 68 -16 104 -20 112 -4 6 -7 17 -9 25 -1 8 -4 29
-8 46 -5 28 -3 31 17 28 13 -2 37 -6 54 -9z m307 -842 c4 -7 21 -20 38 -28 28
-15 30 -15 39 7 5 13 9 18 9 11 1 -6 10 -9 21 -6 12 3 20 2 18 -3 -3 -10 5
-14 26 -14 17 0 48 29 42 38 -2 4 39 7 92 6 105 0 110 -5 67 -48 -14 -14 -26
-32 -26 -41 -1 -8 -2 -20 -3 -26 0 -7 -25 -12 -61 -14 -66 -2 -108 -19 -142
-59 l-22 -25 -34 34 c-37 37 -93 56 -150 52 -35 -3 -38 -1 -47 33 -5 20 -21
47 -35 60 -14 13 -21 26 -16 30 20 12 176 6 184 -7z"/>
<path d="M1139 957 c-8 -15 -8 -22 2 -28 14 -8 32 -2 25 9 -5 9 257 9 264 0 3
-3 11 -8 19 -10 17 -4 23 29 8 39 -7 5 -79 8 -160 9 -138 1 -149 0 -158 -19z"/>
</g>
</svg>
